<svg xmlns="http://www.w3.org/2000/svg" width="1440" height="900" viewBox="0 0 1440 900">
  <defs><filter id="s" x="-20%" y="-20%" width="140%" height="150%"><feDropShadow dx="0" dy="9" stdDeviation="10" flood-color="#10211d" flood-opacity=".09"/></filter><pattern id="dots" width="20" height="20" patternUnits="userSpaceOnUse"><circle cx="1" cy="1" r="1" fill="#cbd4ce"/></pattern><style>text{font-family:Inter,Segoe UI,Arial,sans-serif;fill:#10211d}.white{fill:#fff}.muted{fill:#60706b}.tiny{font-size:9px}.small{font-size:11px}.body{font-size:10px;fill:#60706b}.head{font-size:14px;font-weight:800}.title{font-size:28px;font-weight:800}.eye{font-size:11px;fill:#0f766e;font-weight:800;letter-spacing:2px}.bold{font-weight:800}text[fill="#0f766e"]{fill:#0f766e}text[fill="#875000"]{fill:#875000}text[fill="#21a776"]{fill:#21a776}text[fill="#d97706"]{fill:#d97706}text[fill="#a9c5bd"]{fill:#a9c5bd}text[fill="#abd1c6"]{fill:#abd1c6}text[fill="#cfe1dc"]{fill:#cfe1dc}</style></defs>
  <rect width="1440" height="900" fill="#eef2ee"/><rect width="1440" height="78" fill="#123a31"/>
  <rect x="44" y="22" width="34" height="34" rx="10" fill="#d97706"/><text x="61" y="44" text-anchor="middle" class="white bold">↗</text><text x="92" y="37" class="white head">Lead Recovery OS</text><text x="92" y="53" fill="#a9c5bd" font-size="10" letter-spacing="1">AUTOMATION MAP · DEMO</text>
  <rect x="1178" y="22" width="92" height="34" rx="17" fill="#fff" opacity=".11"/><text x="1224" y="43" text-anchor="middle" class="white small">Version 1.4</text><rect x="1280" y="22" width="112" height="34" rx="17" fill="#fff" opacity=".11"/><text x="1336" y="43" text-anchor="middle" class="white small">Test run passed</text>
  <rect x="1118" y="78" width="322" height="822" fill="#fff"/><line x1="1118" y1="78" x2="1118" y2="900" stroke="#dfe5df"/>
  <text x="36" y="121" class="eye">WORKFLOW BUILDER</text><text x="36" y="157" class="title">Missed lead recovery · Home services</text>
  <rect x="905" y="115" width="178" height="38" rx="10" fill="#fff" stroke="#dfe5df"/><circle cx="925" cy="134" r="5" fill="#21a776"/><circle cx="925" cy="134" r="10" fill="#21a776" opacity=".12"/><text x="944" y="138" class="small bold">ACTIVE · 184 RUNS</text>
  <rect x="36" y="180" width="1047" height="684" fill="url(#dots)"/>
  <g stroke="#91aaa1" stroke-width="2" fill="none"><path d="M266 280H336"/><path d="M566 280H636"/><path d="M751 332V410"/><path d="M636 462H566"/><path d="M336 462H266"/><path d="M151 514V658H336"/><path d="M566 710H636"/></g>
  <g>
    <g><rect x="36" y="228" width="230" height="104" rx="14" fill="#fff" stroke="#dfe5df"/><rect x="52" y="244" width="30" height="30" rx="8" fill="#d9efe7"/><text x="67" y="264" text-anchor="middle" fill="#0f766e" class="small bold">01</text><text x="244" y="258" text-anchor="end" fill="#21a776" class="tiny bold">✓ HEALTHY</text><text x="52" y="296" class="head">Lead enters</text><text x="52" y="315" class="body">Form, tracked call, SMS, or inbox event.</text></g>
    <g><rect x="336" y="228" width="230" height="104" rx="14" fill="#fff" stroke="#dfe5df"/><rect x="352" y="244" width="30" height="30" rx="8" fill="#d9efe7"/><text x="367" y="264" text-anchor="middle" fill="#0f766e" class="small bold">02</text><text x="544" y="258" text-anchor="end" fill="#21a776" class="tiny bold">✓ 184</text><text x="352" y="296" class="head">Validate + normalize</text><text x="352" y="315" class="body">Standardize contacts; reject invalid records.</text></g>
    <g><rect x="636" y="228" width="230" height="104" rx="14" fill="#fff" stroke="#dfe5df"/><rect x="652" y="244" width="30" height="30" rx="8" fill="#d9efe7"/><text x="667" y="264" text-anchor="middle" fill="#0f766e" class="small bold">03</text><text x="844" y="258" text-anchor="end" fill="#21a776" class="tiny bold">✓ 177</text><text x="652" y="296" class="head">Deduplicate</text><text x="652" y="315" class="body">Match recent phone or email before create.</text></g>
    <g><rect x="636" y="410" width="230" height="104" rx="14" fill="#fff" stroke="#dfe5df"/><rect x="652" y="426" width="30" height="30" rx="8" fill="#d9efe7"/><text x="667" y="446" text-anchor="middle" fill="#0f766e" class="small bold">04</text><text x="844" y="440" text-anchor="end" fill="#21a776" class="tiny bold">✓ &lt;2 MIN</text><text x="652" y="478" class="head">Instant acknowledgment</text><text x="652" y="497" class="body">Approved message with reply or booking.</text></g>
    <g><rect x="336" y="410" width="230" height="104" rx="14" fill="#fff" stroke="#dfe5df"/><rect x="352" y="426" width="30" height="30" rx="8" fill="#fff2d8"/><text x="367" y="446" text-anchor="middle" fill="#875000" class="small bold">05</text><text x="544" y="440" text-anchor="end" fill="#d97706" class="tiny bold">52 AT RISK</text><text x="352" y="478" class="head">Response timer</text><text x="352" y="497" class="body">Check for human reply within 10 minutes.</text></g>
    <g><rect x="36" y="410" width="230" height="104" rx="14" fill="#fff" stroke="#dfe5df"/><rect x="52" y="426" width="30" height="30" rx="8" fill="#d9efe7"/><text x="67" y="446" text-anchor="middle" fill="#0f766e" class="small bold">06</text><text x="244" y="440" text-anchor="end" fill="#21a776" class="tiny bold">✓ ROUTED</text><text x="52" y="478" class="head">Owner alert</text><text x="52" y="497" class="body">Notify assigned rep with context and task.</text></g>
    <g><rect x="336" y="658" width="230" height="104" rx="14" fill="#fff" stroke="#dfe5df"/><rect x="352" y="674" width="30" height="30" rx="8" fill="#d9efe7"/><text x="367" y="694" text-anchor="middle" fill="#0f766e" class="small bold">07</text><text x="544" y="688" text-anchor="end" fill="#21a776" class="tiny bold">31 REPLIES</text><text x="352" y="726" class="head">Follow-up sequence</text><text x="352" y="745" class="body">2h and 24h nudges; stop on reply/opt-out.</text></g>
    <g><rect x="636" y="658" width="230" height="104" rx="14" fill="#fff" stroke="#dfe5df"/><rect x="652" y="674" width="30" height="30" rx="8" fill="#d9efe7"/><text x="667" y="694" text-anchor="middle" fill="#0f766e" class="small bold">08</text><text x="844" y="688" text-anchor="end" fill="#21a776" class="tiny bold">14 BOOKED</text><text x="652" y="726" class="head">CRM + reporting</text><text x="652" y="745" class="body">Stage, value, attribution, and weekly ROI.</text></g>
  </g>
  <text x="1142" y="117" font-size="19" font-weight="800">Run details</text><text x="1142" y="139" class="muted small">Selected lead · LR-0184</text>
  <rect x="1142" y="163" width="274" height="106" rx="14" fill="#123a31"/><text x="1160" y="188" fill="#abd1c6" class="tiny" letter-spacing="1">CURRENT STATUS</text><text x="1160" y="219" class="white" font-size="19" font-weight="800">Recovered · Booked</text><text x="1160" y="243" fill="#cfe1dc" class="small">AC repair · Google Ads · $850 est.</text>
  <text x="1142" y="305" class="muted tiny" letter-spacing="1">AUDIT TRAIL</text>
  <g class="small"><circle cx="1152" cy="337" r="10" fill="#d9efe7"/><text x="1152" y="341" text-anchor="middle" fill="#0f766e" class="tiny bold">✓</text><text x="1174" y="333" class="bold">7:42:08 PM</text><text x="1174" y="349" class="muted tiny">Form captured with campaign data</text>
  <circle cx="1152" cy="386" r="10" fill="#d9efe7"/><text x="1152" y="390" text-anchor="middle" fill="#0f766e" class="tiny bold">✓</text><text x="1174" y="382" class="bold">7:42:13 PM</text><text x="1174" y="398" class="muted tiny">Acknowledgment delivered</text>
  <circle cx="1152" cy="435" r="10" fill="#d9efe7"/><text x="1152" y="439" text-anchor="middle" fill="#0f766e" class="tiny bold">✓</text><text x="1174" y="431" class="bold">7:53:01 PM</text><text x="1174" y="447" class="muted tiny">At-risk timer triggered owner alert</text>
  <circle cx="1152" cy="484" r="10" fill="#d9efe7"/><text x="1152" y="488" text-anchor="middle" fill="#0f766e" class="tiny bold">✓</text><text x="1174" y="480" class="bold">8:16:44 PM</text><text x="1174" y="496" class="muted tiny">Lead replied; automation stopped</text>
  <circle cx="1152" cy="533" r="10" fill="#d9efe7"/><text x="1152" y="537" text-anchor="middle" fill="#0f766e" class="tiny bold">✓</text><text x="1174" y="529" class="bold">8:21:09 PM</text><text x="1174" y="545" class="muted tiny">Appointment booked</text></g>
  <text x="1142" y="584" class="muted tiny" letter-spacing="1">APPROVED MESSAGE</text><rect x="1142" y="600" width="274" height="116" rx="11" fill="#f6f7f4" stroke="#e9ece7"/><text x="1157" y="623" class="body"><tspan x="1157" dy="0">Thanks for contacting NorthStar about your</tspan><tspan x="1157" dy="17">AC repair. We received your request and can</tspan><tspan x="1157" dy="17">help. Reply with your ZIP code, or choose an</tspan><tspan x="1157" dy="17">available time: [booking link].</tspan><tspan x="1157" dy="17">Reply STOP to opt out.</tspan></text>
  <text x="1142" y="753" class="muted tiny" letter-spacing="1">SAFEGUARDS</text><g class="small"><circle cx="1152" cy="780" r="5" fill="#21a776"/><text x="1166" y="784">Reply and booking stop conditions</text><circle cx="1152" cy="811" r="5" fill="#21a776"/><text x="1166" y="815">Quiet hours and opt-out handling</text><circle cx="1152" cy="842" r="5" fill="#21a776"/><text x="1166" y="846">Failure alert and review queue</text></g>
</svg>
